<svg version="1.1" xmlns="http://www.w3.org/2000/svg" xmlns:xlink="http://www.w3.org/1999/xlink" width="125px" height="125px" viewBox="0,0,248.04688,256"><defs><clipPath id="clip-1"><rect x="0" y="0" width="125" height="129" id="__lottie_element_1395" fill="none" stroke="none" stroke-width="1" stroke-linecap="butt"></rect></clipPath><clipPath id="clip-2"><path d="M0,0h500v500h-500z" id="__lottie_element_1397" fill="none" stroke="none" stroke-width="1" stroke-linecap="butt"></path></clipPath></defs><g fill="#e8cdef" fill-rule="nonzero" stroke="none" stroke-width="1" stroke-linecap="butt" stroke-linejoin="miter" stroke-miterlimit="10" stroke-dasharray="" stroke-dashoffset="0" font-family="none" font-weight="none" font-size="none" text-anchor="none" style="mix-blend-mode: normal"><path d="M48.64,256c-26.86313,0 -48.64,-21.77687 -48.64,-48.64v-158.72c0,-26.86313 21.77687,-48.64 48.64,-48.64h150.76688c26.86313,0 48.64,21.77687 48.64,48.64v158.72c0,26.86313 -21.77687,48.64 -48.64,48.64z" id="shape"></path></g><g fill="none" fill-rule="nonzero" stroke="none" stroke-width="none" stroke-linecap="none" stroke-linejoin="miter" stroke-miterlimit="10" stroke-dasharray="" stroke-dashoffset="0" font-family="none" font-weight="none" font-size="none" text-anchor="none" style="mix-blend-mode: normal"><g transform="translate(-0.00757,0) scale(1.9845,1.9845)"><g clip-path="url(#clip-1)"><g transform="translate(0,2) scale(0.25,0.25)" clip-path="url(#clip-2)"><g transform="translate(-15.3044,83.2507) scale(1.2,1.2)" fill="#8560c5" stroke="none" stroke-width="1" stroke-linecap="butt"><g transform="translate(220.65199,359.16901)"><path d="M68.035,0c0,3.236 -30.461,5.86 -68.036,5.86c-37.574,0 -68.034,-2.624 -68.034,-5.86c0,-3.237 30.46,-5.86 68.034,-5.86c37.575,0 68.036,2.623 68.036,5.86z"></path></g></g><g transform="translate(29.00002,-10.92349) scale(1,1)" fill-opacity="0" fill="#000000" stroke="#e2008b" stroke-width="15" stroke-linecap="round" opacity="0.00749" visibility="hidden"><g transform="translate(220.672,163.205)"><path d="M-137.929,44.88c-2.31,-6.577 -1.08099,-13.753 3.285,-19.197c4.366,-5.442 11.104,-8.197 18.027,-7.371c7.395,0.885 17.505,2.558 28.798,5.718c-0.422,-13.056 0.617,-24.479 1.772,-32.681c0.972,-6.903 5.361,-12.711 11.741,-15.539c6.38,-2.826 13.63,-2.175 19.398,1.74c6.034,4.1 14.005,10.045 22.358,17.766c5.019,-12.738 10.861,-23.307 15.496,-30.748c3.685,-5.916 10.051,-9.448 17.027,-9.448h0.002c6.976,0 13.342,3.533 17.026,9.449c4.638,7.448 10.488,18.03 15.509,30.784c8.367,-7.737 16.353,-13.696 22.4,-17.803c5.765,-3.918 13.016,-4.566 19.396,-1.74c6.38,2.828 10.77,8.636 11.742,15.539c1.15501,8.202 2.194,19.625 1.771,32.681c11.294,-3.16 21.404,-4.833 28.797,-5.717c6.932,-0.837 13.662,1.928 18.02901,7.37c4.36499,5.444 5.59399,12.62 3.284,19.197"></path></g></g><g transform="translate(29,-3.89877)" fill-opacity="0" fill="#000000" stroke="#e81122" stroke-width="12" stroke-linecap="round" opacity="0.00755" visibility="hidden"><g transform="translate(219.024,122.325)"><path d="M-165.14999,58.193c-0.99501,-28.9 23.08899,-58.193 52.55199,-53.054c2.367,0.413 4.77,0.614 7.15,0.982c0.321,-3.635 0.736,-7.263 1.245,-10.874c1.942,-13.787 10.704,-25.39 23.442,-31.034c12.736,-5.644 27.216,-4.341 38.734,3.476c1.319,0.897 2.63,1.809 3.931,2.736c1.815,-3.295 3.721,-6.545 5.714,-9.744c7.363,-11.819 20.074,-18.874 34.003,-18.874c13.936,0 26.647,7.058 34.007,18.879c1.996,3.205 3.906,6.463 5.726,9.768c1.314,-0.938 2.636,-1.859 3.967,-2.763c11.508,-7.82 25.989,-9.121 38.731,-3.482c12.744,5.647 21.507,17.25 23.449,31.039c0.509,3.612 0.923,7.239 1.244,10.873c2.378,-0.367 4.80199,-0.458 7.144,-0.98c41.005,-9.141 50.256,35.739 49.559,53.052"></path></g></g><g transform="translate(29.00002,1.70201) scale(1,1)" fill-opacity="0" fill="#000000" stroke="#f15021" stroke-width="7" stroke-linecap="round" opacity="0.00743" visibility="hidden"><g transform="translate(220.673,95.663)"><path d="M-195.105,78.163c-8.06801,-22.978 6.213,-48.041 21.45399,-67.045c10.69,-13.323 25.532,-22.104 41.93001,-25.098c6.52599,-17.349 19.70899,-31.474 37.15599,-39.206c9.04601,-4.008 18.613,-6.041 28.43501,-6.041c5.497,0 10.924,0.644 16.198,1.905c13.002,-13.25 30.797,-20.841 49.903,-20.841c19.113,0 36.913,7.595 49.913,20.848c5.285,-1.265 10.726,-1.912 16.237,-1.912c9.81499,0 19.379,2.03 28.422,6.032c17.459,7.736 30.646,21.862 37.17599,39.211c16.39301,2.99 31.237,11.772 41.92601,25.094c15.245,19.009 29.52899,44.074 21.459,67.052"></path></g></g><g transform="translate(-81.5,-113.18901) scale(1.5,1.5)" fill="#a479d6" stroke="none" stroke-width="1" stroke-linecap="butt"><g transform="translate(164.407,266.36899)"><path d="M-19.02,23.709c-24.804,-19.897 -37.591,-48.223 -43.227,-64.273c-2.108,-6.006 2.828,-12.16 9.148,-11.403c16.891,2.02 47.315,8.361 72.119,28.258c24.803,19.898 37.591,48.224 43.226,64.273c2.109,6.007 -2.827,12.16 -9.148,11.404c-16.89,-2.021 -47.314,-8.361 -72.118,-28.259z"></path></g></g><g transform="translate(581.5,-113.18901) rotate(-180) scale(1.5,-1.5)" fill="#a479d6" stroke="none" stroke-width="1" stroke-linecap="butt"><g transform="translate(164.407,266.36899)"><path d="M-19.02,23.709c-24.804,-19.897 -37.591,-48.223 -43.227,-64.273c-2.108,-6.006 2.828,-12.16 9.148,-11.403c16.891,2.02 47.315,8.361 72.119,28.258c24.803,19.898 37.591,48.224 43.226,64.273c2.109,6.007 -2.827,12.16 -9.148,11.404c-16.89,-2.021 -47.314,-8.361 -72.118,-28.259z"></path></g></g><g transform="translate(-81.5,-113.18901) scale(1.5,1.5)" stroke="none" stroke-width="1" stroke-linecap="butt"><g transform="translate(187.394,245.48801)" fill="#8560c5"><path d="M-27.788,12.314c-12.883,-29.071 -11.221,-60.104 -8.849,-76.95c0.888,-6.303 8.099,-9.499 13.365,-5.922c14.072,9.557 38.179,29.172 51.062,58.243c12.882,29.072 11.22,60.106 8.848,76.95c-0.887,6.304 -8.099,9.5 -13.365,5.924c-14.072,-9.557 -38.178,-29.173 -51.061,-58.245z"></path></g><g transform="translate(253.961,245.48801)" fill="#8560c5"><path d="M27.789,12.314c12.883,-29.071 11.221,-60.104 8.849,-76.95c-0.888,-6.303 -8.1,-9.499 -13.366,-5.922c-14.072,9.557 -38.178,29.172 -51.061,58.243c-12.883,29.072 -11.221,60.106 -8.849,76.95c0.888,6.304 8.099,9.5 13.365,5.924c14.073,-9.557 38.178,-29.173 51.062,-58.245z"></path></g><g transform="translate(220.65199,236.451)" fill="#a479d6"><path d="M30.395,-2.609c0,-31.801 -14.094,-59.501 -23.087,-73.939c-3.365,-5.402 -11.251,-5.402 -14.616,0c-8.993,14.438 -23.087,42.138 -23.087,73.939c0,46.7 15.916,84.559 30.395,84.559c14.479,0 30.395,-37.859 30.395,-84.559z"></path></g></g></g></g></g></g></svg>