<svg xmlns="http://www.w3.org/2000/svg" xmlns:xlink="http://www.w3.org/1999/xlink" version="1.1" width="24" height="24" viewBox="0,0,256,256"><defs><linearGradient gradientTransform="rotate(150, 0.5, 0.5)" x1="50%" y1="0%" x2="50%" y2="100%" id="ffflux-gradient"><stop stop-color="hsl(272, 72%, 51%)" stop-opacity="1" offset="0%"/><stop stop-color="hsl(217, 82%, 54%)" stop-opacity="1" offset="100%"/></linearGradient><filter id="ffflux-filter" x="-20%" y="-20%" width="140%" height="140%" filterUnits="objectBoundingBox" primitiveUnits="userSpaceOnUse" color-interpolation-filters="sRGB">
  <feTurbulence type="fractalNoise" baseFrequency="0.005 0.003" numOctaves="2" seed="74" stitchTiles="stitch" x="0%" y="0%" width="100%" height="100%" result="turbulence"/>
  <feGaussianBlur stdDeviation="20 0" x="0%" y="0%" width="100%" height="100%" in="turbulence" edgeMode="duplicate" result="blur"/>
  <feBlend mode="screen" x="0%" y="0%" width="100%" height="100%" in="SourceGraphic" in2="blur" result="blend"/>
  
</filter></defs><g xmlns="http://www.w3.org/2000/svg" transform="translate(61.44,61.44) scale(0.52,0.52)"><g fill="url(#ffflux-gradient)" fill-rule="nonzero" stroke="none" stroke-width="1" stroke-linecap="butt" stroke-linejoin="miter" stroke-miterlimit="10" stroke-dasharray="" stroke-dashoffset="0" font-family="none" font-weight="none" font-size="none" text-anchor="none" style="mix-blend-mode: normal"><path d="M23.80308,332.30769c-55.28965,0 -100.11077,-44.82112 -100.11077,-100.11077v-208.39385c0,-55.28965 44.82112,-100.11077 100.11077,-100.11077h208.39385c55.28965,0 100.11077,44.82112 100.11077,100.11077v208.39385c0,55.28965 -44.82112,100.11077 -100.11077,100.11077z" id="shape"/></g><g fill="none" fill-rule="nonzero" stroke="#ffffff" stroke-width="2" stroke-linecap="round" stroke-linejoin="round" stroke-miterlimit="10" stroke-dasharray="" stroke-dashoffset="0" font-family="none" font-weight="none" font-size="none" text-anchor="none" style="mix-blend-mode: normal"><g transform="scale(10.66667,10.66667)"><rect x="3" y="3" width="8" height="8" rx="2" ry="0"/><path d="M7,11v4c0,1.10457 0.89543,2 2,2h4"/><rect x="13" y="13" width="8" height="8" rx="2" ry="0"/></g></g></g></svg>