<svg xmlns="http://www.w3.org/2000/svg" width="256" height="256"><defs><linearGradient id="a" x1="0%" x2="100%" y1="0%" y2="100%"><stop offset="0%" stop-color="#8B5CF6"/><stop offset="100%" stop-color="#EC4899"/></linearGradient></defs><rect width="100%" height="100%" fill="url(#a)" rx="12"/><svg xmlns="http://www.w3.org/2000/svg" width="153.6" height="153.6" fill="none" stroke="#FFF" stroke-linecap="round" stroke-linejoin="round" aria-hidden="true" class="lucide lucide-pickaxe text-white" style="transform:translate(51.2px,51.2px)" viewBox="0 0 24 24"><path d="M14.531 12.469 6.619 20.38a1 1 0 1 1-3-3l7.912-7.912m4.155-5.154A12.5 12.5 0 0 0 5.461 2.958 1 1 0 0 0 5.58 4.71a22 22 0 0 1 6.318 3.393"/><path d="M17.7 3.7a1 1 0 0 0-1.4 0l-4.6 4.6a1 1 0 0 0 0 1.4l2.6 2.6a1 1 0 0 0 1.4 0l4.6-4.6a1 1 0 0 0 0-1.4z"/><path d="M19.686 8.314a12.501 12.501 0 0 1 1.356 10.225 1 1 0 0 1-1.751-.119 22 22 0 0 0-3.393-6.319"/></svg></svg>